{
  "accessors": {
    "accessor_0": {
      "bufferView": "bufferView_0",
      "byteOffset": 0,
      "byteStride": 0,
      "componentType": 5126,
      "count": 336,
      "min": [
        -8.477386474609375,
        50.33684158325195,
        -25.089889526367188
      ],
      "max": [
        8.477413177490234,
        51.93846130371094,
        -21.44268798828125
      ],
      "type": "VEC3"
    },
    "accessor_1": {
      "bufferView": "bufferView_0",
      "byteOffset": 4032,
      "byteStride": 0,
      "componentType": 5126,
      "count": 336,
      "min": [
        -0.8998000025749207,
        -0.7527999877929688,
        -0.9851999878883362
      ],
      "max": [
        0.8998000025749207,
        0.9979000091552734,
        0.13130000233650208
      ],
      "type": "VEC3"
    },
    "accessor_2": {
      "bufferView": "bufferView_0",
      "byteOffset": 8064,
      "byteStride": 0,
      "componentType": 5126,
      "count": 336,
      "min": [
        -2.004699945449829,
        -1.2910000085830688
      ],
      "max": [
        3.0048000812530518,
        2.2339000701904297
      ],
      "type": "VEC2"
    },
    "accessor_3": {
      "bufferView": "bufferView_1",
      "byteOffset": 0,
      "byteStride": 0,
      "componentType": 5123,
      "count": 768,
      "min": [
        0
      ],
      "max": [
        335
      ],
      "type": "SCALAR"
    },
    "accessor_4": {
      "bufferView": "bufferView_0",
      "byteOffset": 10752,
      "byteStride": 0,
      "componentType": 5126,
      "count": 1221,
      "min": [
        -91.9976806640625,
        1.521968960762024,
        -102.72388458251953
      ],
      "max": [
        91.99774169921875,
        60.94850158691406,
        95.91942596435547
      ],
      "type": "VEC3"
    },
    "accessor_5": {
      "bufferView": "bufferView_0",
      "byteOffset": 25404,
      "byteStride": 0,
      "componentType": 5126,
      "count": 1221,
      "min": [
        -0.9993000030517578,
        -1,
        -0.9954000115394592
      ],
      "max": [
        0.9993000030517578,
        0.9998999834060669,
        0.9994000196456909
      ],
      "type": "VEC3"
    },
    "accessor_6": {
      "bufferView": "bufferView_0",
      "byteOffset": 40056,
      "byteStride": 0,
      "componentType": 5126,
      "count": 1221,
      "min": [
        -2.8096001148223877,
        -3.409899950027466
      ],
      "max": [
        3.7286999225616455,
        4.303800106048584
      ],
      "type": "VEC2"
    },
    "accessor_7": {
      "bufferView": "bufferView_1",
      "byteOffset": 1536,
      "byteStride": 0,
      "componentType": 5123,
      "count": 300,
      "min": [
        0
      ],
      "max": [
        69
      ],
      "type": "SCALAR"
    },
    "accessor_8": {
      "bufferView": "bufferView_1",
      "byteOffset": 2136,
      "byteStride": 0,
      "componentType": 5123,
      "count": 6108,
      "min": [
        70
      ],
      "max": [
        1220
      ],
      "type": "SCALAR"
    },
    "accessor_9": {
      "bufferView": "bufferView_0",
      "byteOffset": 49824,
      "byteStride": 0,
      "componentType": 5126,
      "count": 180,
      "min": [
        -6.493771076202393,
        38.70979309082031,
        -42.03340148925781
      ],
      "max": [
        6.493805885314941,
        45.85403060913086,
        -29.636260986328125
      ],
      "type": "VEC3"
    },
    "accessor_10": {
      "bufferView": "bufferView_0",
      "byteOffset": 51984,
      "byteStride": 0,
      "componentType": 5126,
      "count": 180,
      "min": [
        -0.9868999719619751,
        -0.998199999332428,
        -0.9603999853134155
      ],
      "max": [
        0.9868999719619751,
        0.9860000014305115,
        0.3068000078201294
      ],
      "type": "VEC3"
    },
    "accessor_11": {
      "bufferView": "bufferView_0",
      "byteOffset": 54144,
      "byteStride": 0,
      "componentType": 5126,
      "count": 180,
      "min": [
        0.3499999940395355,
        0.3499999940395355
      ],
      "max": [
        0.6499999761581421,
        0.6499999761581421
      ],
      "type": "VEC2"
    },
    "accessor_12": {
      "bufferView": "bufferView_1",
      "byteOffset": 14352,
      "byteStride": 0,
      "componentType": 5123,
      "count": 540,
      "min": [
        0
      ],
      "max": [
        179
      ],
      "type": "SCALAR"
    },
    "accessor_13": {
      "bufferView": "bufferView_0",
      "byteOffset": 55584,
      "byteStride": 0,
      "componentType": 5126,
      "count": 394,
      "min": [
        -91.9976806640625,
        1.521968960762024,
        -102.72388458251953
      ],
      "max": [
        91.99774169921875,
        55.40388107299805,
        95.91942596435547
      ],
      "type": "VEC3"
    },
    "accessor_14": {
      "bufferView": "bufferView_0",
      "byteOffset": 60312,
      "byteStride": 0,
      "componentType": 5126,
      "count": 394,
      "min": [
        -0.9965000152587891,
        -0.9761000275611877,
        -0.9706000089645386
      ],
      "max": [
        0.758400022983551,
        0.9761000275611877,
        0.9706000089645386
      ],
      "type": "VEC3"
    },
    "accessor_15": {
      "bufferView": "bufferView_0",
      "byteOffset": 65040,
      "byteStride": 0,
      "componentType": 5126,
      "count": 394,
      "min": [
        -30.821399688720703,
        0.014800000004470348
      ],
      "max": [
        31.868900299072266,
        0.9976000189781189
      ],
      "type": "VEC2"
    },
    "accessor_16": {
      "bufferView": "bufferView_1",
      "byteOffset": 15432,
      "byteStride": 0,
      "componentType": 5123,
      "count": 480,
      "min": [
        0
      ],
      "max": [
        197
      ],
      "type": "SCALAR"
    },
    "accessor_17": {
      "bufferView": "bufferView_1",
      "byteOffset": 16392,
      "byteStride": 0,
      "componentType": 5123,
      "count": 480,
      "min": [
        198
      ],
      "max": [
        393
      ],
      "type": "SCALAR"
    }
  },
  "asset": {
    "generator": "obj2gltf",
    "profile": {
      "api": "WebGL",
      "version": "1.0"
    },
    "version": "1.0",
    "premultipliedAlpha": true
  },
  "buffers": {
    "buffer": {
      "byteLength": 85544,
      "uri": "data:application/octet-stream;base64,",
      "type": "arraybuffer"
    }
  },
  "bufferViews": {
    "bufferView_0": {
      "buffer": "buffer",
      "byteLength": 68192,
      "byteOffset": 0,
      "target": 34962
    },
    "bufferView_1": {
      "buffer": "buffer",
      "byteLength": 17352,
      "byteOffset": 68192,
      "target": 34963
    }
  },
  "extensionsUsed": [],
  "images": {
    "SH3": {
      "name": "SH3",
      "uri": "data:image/png;base64,"
    },
    "Spinnen_Bein_tex_2": {
      "name": "Spinnen_Bein_tex_2",
      "uri": "data:image/jpeg;base64,"
    },
    "Spinnen_Bein_tex": {
      "name": "Spinnen_Bein_tex",
      "uri": "data:image/jpeg;base64,"
    }
  },
  "materials": {
    "Spider_Eye": {
      "technique": "technique0",
      "values": {
        "ambient": [
          0,
          0,
          0,
          1
        ],
        "diffuse": [
          0,
          0,
          0,
          1
        ],
        "emission": [
          0,
          0,
          0,
          1
        ],
        "specular": [
          1,
          1,
          1,
          1
        ],
        "shininess": 849.285036,
        "transparency": 1
      }
    },
    "Spider": {
      "technique": "technique1",
      "values": {
        "ambient": [
          0,
          0,
          0,
          1
        ],
        "diffuse": "texture_Spinnen_Bein_tex",
        "emission": [
          0,
          0,
          0,
          1
        ],
        "specular": "texture_Spinnen_Bein_tex_2",
        "shininess": 37.254902,
        "transparency": 1
      }
    },
    "Spider_NONE": {
      "technique": "technique1",
      "values": {
        "ambient": [
          0,
          0,
          0,
          1
        ],
        "diffuse": "texture_Spinnen_Bein_tex_2",
        "emission": [
          0,
          0,
          0,
          1
        ],
        "specular": "texture_Spinnen_Bein_tex_2",
        "shininess": 37.254902,
        "transparency": 1
      }
    },
    "Spider_teeth": {
      "technique": "technique2",
      "values": {
        "ambient": [
          0,
          0,
          0,
          1
        ],
        "diffuse": [
          0.413204,
          0.311263,
          0.221805,
          1
        ],
        "emission": [
          0,
          0,
          0,
          1
        ],
        "specular": [
          0,
          0,
          0,
          1
        ],
        "shininess": 0,
        "transparency": 1
      }
    },
    "Spider_Fur": {
      "technique": "technique3",
      "values": {
        "ambient": [
          0,
          0,
          0,
          1
        ],
        "diffuse": "texture_SH3",
        "emission": [
          0,
          0,
          0,
          1
        ],
        "specular": [
          0,
          0,
          0,
          1
        ],
        "shininess": 0,
        "transparency": 0
      }
    },
    "Spider_Fur_NONE": {
      "technique": "technique3",
      "values": {
        "ambient": [
          0,
          0,
          0,
          1
        ],
        "diffuse": "texture_SH3",
        "emission": [
          0,
          0,
          0,
          1
        ],
        "specular": [
          0,
          0,
          0,
          1
        ],
        "shininess": 0,
        "transparency": 0
      }
    }
  },
  "meshes": {
    "Spider_Eyes_Spider.006-Mesh": {
      "name": "Spider_Eyes_Spider.006-Mesh",
      "primitives": [
        {
          "attributes": {
            "POSITION": "accessor_0",
            "NORMAL": "accessor_1",
            "TEXCOORD_0": "accessor_2"
          },
          "indices": "accessor_3",
          "material": "Spider_Eye",
          "mode": 4
        }
      ]
    },
    "Spider_Spider.005-Mesh": {
      "name": "Spider_Spider.005-Mesh",
      "primitives": [
        {
          "attributes": {
            "POSITION": "accessor_4",
            "NORMAL": "accessor_5",
            "TEXCOORD_0": "accessor_6"
          },
          "indices": "accessor_7",
          "material": "Spider",
          "mode": 4
        },
        {
          "attributes": {
            "POSITION": "accessor_4",
            "NORMAL": "accessor_5",
            "TEXCOORD_0": "accessor_6"
          },
          "indices": "accessor_8",
          "material": "Spider_NONE",
          "mode": 4
        }
      ]
    },
    "Spider_teeth_Spider.004-Mesh": {
      "name": "Spider_teeth_Spider.004-Mesh",
      "primitives": [
        {
          "attributes": {
            "POSITION": "accessor_9",
            "NORMAL": "accessor_10",
            "TEXCOORD_0": "accessor_11"
          },
          "indices": "accessor_12",
          "material": "Spider_teeth",
          "mode": 4
        }
      ]
    },
    "Spider_Fur_Spider-Mesh": {
      "name": "Spider_Fur_Spider-Mesh",
      "primitives": [
        {
          "attributes": {
            "POSITION": "accessor_13",
            "NORMAL": "accessor_14",
            "TEXCOORD_0": "accessor_15"
          },
          "indices": "accessor_16",
          "material": "Spider_Fur",
          "mode": 4
        },
        {
          "attributes": {
            "POSITION": "accessor_13",
            "NORMAL": "accessor_14",
            "TEXCOORD_0": "accessor_15"
          },
          "indices": "accessor_17",
          "material": "Spider_Fur_NONE",
          "mode": 4
        }
      ]
    }
  },
  "nodes": {
    "Spider_Eyes_Spider.006": {
      "name": "Spider_Eyes_Spider.006",
      "meshes": [
        "Spider_Eyes_Spider.006-Mesh"
      ],
      "children": [],
      "matrix": [
        1,
        0,
        0,
        0,
        0,
        1,
        0,
        0,
        0,
        0,
        1,
        0,
        0,
        0,
        0,
        1
      ]
    },
    "Spider_Spider.005": {
      "name": "Spider_Spider.005",
      "meshes": [
        "Spider_Spider.005-Mesh"
      ],
      "children": [],
      "matrix": [
        1,
        0,
        0,
        0,
        0,
        1,
        0,
        0,
        0,
        0,
        1,
        0,
        0,
        0,
        0,
        1
      ]
    },
    "Spider_teeth_Spider.004": {
      "name": "Spider_teeth_Spider.004",
      "meshes": [
        "Spider_teeth_Spider.004-Mesh"
      ],
      "children": [],
      "matrix": [
        1,
        0,
        0,
        0,
        0,
        1,
        0,
        0,
        0,
        0,
        1,
        0,
        0,
        0,
        0,
        1
      ]
    },
    "Spider_Fur_Spider": {
      "name": "Spider_Fur_Spider",
      "meshes": [
        "Spider_Fur_Spider-Mesh"
      ],
      "children": [],
      "matrix": [
        1,
        0,
        0,
        0,
        0,
        1,
        0,
        0,
        0,
        0,
        1,
        0,
        0,
        0,
        0,
        1
      ]
    }
  },
  "samplers": {
    "sampler": {
      "magFilter": 9729,
      "minFilter": 9729,
      "wrapS": 10497,
      "wrapT": 10497
    }
  },
  "scene": "scene",
  "scenes": {
    "scene": {
      "nodes": [
        "Spider_Eyes_Spider.006",
        "Spider_Spider.005",
        "Spider_teeth_Spider.004",
        "Spider_Fur_Spider"
      ]
    }
  },
  "textures": {
    "texture_SH3": {
      "format": 6408,
      "internalFormat": 6408,
      "sampler": "sampler",
      "source": "SH3",
      "target": 3553,
      "type": 5121
    },
    "texture_Spinnen_Bein_tex_2": {
      "format": 6407,
      "internalFormat": 6407,
      "sampler": "sampler",
      "source": "Spinnen_Bein_tex_2",
      "target": 3553,
      "type": 5121
    },
    "texture_Spinnen_Bein_tex": {
      "format": 6407,
      "internalFormat": 6407,
      "sampler": "sampler",
      "source": "Spinnen_Bein_tex",
      "target": 3553,
      "type": 5121
    }
  },
  "animations": {},
  "cameras": {},
  "programs": {
    "program0": {
      "attributes": [
        "a_position",
        "a_normal",
        "a_texcoord_0"
      ],
      "fragmentShader": "fragmentShader0",
      "vertexShader": "vertexShader0"
    },
    "program1": {
      "attributes": [
        "a_position",
        "a_normal",
        "a_texcoord_0"
      ],
      "fragmentShader": "fragmentShader1",
      "vertexShader": "vertexShader1"
    },
    "program2": {
      "attributes": [
        "a_position",
        "a_normal",
        "a_texcoord_0"
      ],
      "fragmentShader": "fragmentShader2",
      "vertexShader": "vertexShader2"
    },
    "program3": {
      "attributes": [
        "a_position",
        "a_normal",
        "a_texcoord_0"
      ],
      "fragmentShader": "fragmentShader3",
      "vertexShader": "vertexShader3"
    }
  },
  "shaders": {
    "vertexShader0": {
      "type": 35633,
      "uri": "data:text/plain;base64,"
    },
    "fragmentShader0": {
      "type": 35632,
      "uri": "data:text/plain;base64,"
    },
    "vertexShader1": {
      "type": 35633,
      "uri": "data:text/plain;base64,"
    },
    "fragmentShader1": {
      "type": 35632,
      "uri": "data:text/plain;base64,"
    },
    "vertexShader2": {
      "type": 35633,
      "uri": "data:text/plain;base64,"
    },
    "fragmentShader2": {
      "type": 35632,
      "uri": "data:text/plain;base64,"
    },
    "vertexShader3": {
      "type": 35633,
      "uri": "data:text/plain;base64,"
    },
    "fragmentShader3": {
      "type": 35632,
      "uri": "data:text/plain;base64,"
    }
  },
  "skins": {},
  "techniques": {
    "technique0": {
      "attributes": {
        "a_position": "position",
        "a_normal": "normal",
        "a_texcoord_0": "texcoord_0"
      },
      "parameters": {
        "modelViewMatrix": {
          "semantic": "MODELVIEW",
          "type": 35676
        },
        "projectionMatrix": {
          "semantic": "PROJECTION",
          "type": 35676
        },
        "normalMatrix": {
          "semantic": "MODELVIEWINVERSETRANSPOSE",
          "type": 35675
        },
        "ambient": {
          "type": 35666
        },
        "diffuse": {
          "type": 35666
        },
        "emission": {
          "type": 35666
        },
        "specular": {
          "type": 35666
        },
        "shininess": {
          "type": 5126
        },
        "transparency": {
          "type": 5126
        },
        "position": {
          "semantic": "POSITION",
          "type": 35665
        },
        "normal": {
          "semantic": "NORMAL",
          "type": 35665
        },
        "texcoord_0": {
          "semantic": "TEXCOORD_0",
          "type": 5126
        }
      },
      "program": "program0",
      "states": {
        "enable": [
          2884,
          2929
        ]
      },
      "uniforms": {
        "u_modelViewMatrix": "modelViewMatrix",
        "u_projectionMatrix": "projectionMatrix",
        "u_normalMatrix": "normalMatrix",
        "u_ambient": "ambient",
        "u_diffuse": "diffuse",
        "u_emission": "emission",
        "u_specular": "specular",
        "u_shininess": "shininess",
        "u_transparency": "transparency"
      }
    },
    "technique1": {
      "attributes": {
        "a_position": "position",
        "a_normal": "normal",
        "a_texcoord_0": "texcoord_0"
      },
      "parameters": {
        "modelViewMatrix": {
          "semantic": "MODELVIEW",
          "type": 35676
        },
        "projectionMatrix": {
          "semantic": "PROJECTION",
          "type": 35676
        },
        "normalMatrix": {
          "semantic": "MODELVIEWINVERSETRANSPOSE",
          "type": 35675
        },
        "ambient": {
          "type": 35666
        },
        "diffuse": {
          "type": 35678
        },
        "emission": {
          "type": 35666
        },
        "specular": {
          "type": 35678
        },
        "shininess": {
          "type": 5126
        },
        "transparency": {
          "type": 5126
        },
        "position": {
          "semantic": "POSITION",
          "type": 35665
        },
        "normal": {
          "semantic": "NORMAL",
          "type": 35665
        },
        "texcoord_0": {
          "semantic": "TEXCOORD_0",
          "type": 35664
        }
      },
      "program": "program1",
      "states": {
        "enable": [
          2884,
          2929
        ]
      },
      "uniforms": {
        "u_modelViewMatrix": "modelViewMatrix",
        "u_projectionMatrix": "projectionMatrix",
        "u_normalMatrix": "normalMatrix",
        "u_ambient": "ambient",
        "u_diffuse": "diffuse",
        "u_emission": "emission",
        "u_specular": "specular",
        "u_shininess": "shininess",
        "u_transparency": "transparency"
      }
    },
    "technique2": {
      "attributes": {
        "a_position": "position",
        "a_normal": "normal",
        "a_texcoord_0": "texcoord_0"
      },
      "parameters": {
        "modelViewMatrix": {
          "semantic": "MODELVIEW",
          "type": 35676
        },
        "projectionMatrix": {
          "semantic": "PROJECTION",
          "type": 35676
        },
        "normalMatrix": {
          "semantic": "MODELVIEWINVERSETRANSPOSE",
          "type": 35675
        },
        "ambient": {
          "type": 35666
        },
        "diffuse": {
          "type": 35666
        },
        "emission": {
          "type": 35666
        },
        "specular": {
          "type": 35666
        },
        "shininess": {
          "type": 5126
        },
        "transparency": {
          "type": 5126
        },
        "position": {
          "semantic": "POSITION",
          "type": 35665
        },
        "normal": {
          "semantic": "NORMAL",
          "type": 35665
        },
        "texcoord_0": {
          "semantic": "TEXCOORD_0",
          "type": 5126
        }
      },
      "program": "program2",
      "states": {
        "enable": [
          2884,
          2929
        ]
      },
      "uniforms": {
        "u_modelViewMatrix": "modelViewMatrix",
        "u_projectionMatrix": "projectionMatrix",
        "u_normalMatrix": "normalMatrix",
        "u_ambient": "ambient",
        "u_diffuse": "diffuse",
        "u_emission": "emission",
        "u_specular": "specular",
        "u_shininess": "shininess",
        "u_transparency": "transparency"
      }
    },
    "technique3": {
      "attributes": {
        "a_position": "position",
        "a_normal": "normal",
        "a_texcoord_0": "texcoord_0"
      },
      "parameters": {
        "modelViewMatrix": {
          "semantic": "MODELVIEW",
          "type": 35676
        },
        "projectionMatrix": {
          "semantic": "PROJECTION",
          "type": 35676
        },
        "normalMatrix": {
          "semantic": "MODELVIEWINVERSETRANSPOSE",
          "type": 35675
        },
        "ambient": {
          "type": 35666
        },
        "diffuse": {
          "type": 35678
        },
        "emission": {
          "type": 35666
        },
        "specular": {
          "type": 35666
        },
        "shininess": {
          "type": 5126
        },
        "transparency": {
          "type": 5126
        },
        "position": {
          "semantic": "POSITION",
          "type": 35665
        },
        "normal": {
          "semantic": "NORMAL",
          "type": 35665
        },
        "texcoord_0": {
          "semantic": "TEXCOORD_0",
          "type": 35664
        }
      },
      "program": "program3",
      "states": {
        "enable": [
          2929,
          3042
        ],
        "functions": {
          "depthMask": [
            false
          ],
          "blendEquationSeparate": [
            32774,
            32774
          ],
          "blendFuncSeparate": [
            1,
            771,
            1,
            771
          ]
        }
      },
      "uniforms": {
        "u_modelViewMatrix": "modelViewMatrix",
        "u_projectionMatrix": "projectionMatrix",
        "u_normalMatrix": "normalMatrix",
        "u_ambient": "ambient",
        "u_diffuse": "diffuse",
        "u_emission": "emission",
        "u_specular": "specular",
        "u_shininess": "shininess",
        "u_transparency": "transparency"
      }
    }
  }
}
